<mxfile host="app.diagrams.net" modified="2023-11-12T18:25:16.890Z" agent="Mozilla/5.0 (Windows NT 10.0; Win64; x64) AppleWebKit/537.36 (KHTML, like Gecko) Chrome/119.0.0.0 Safari/537.36" etag="inU-iSA3_uz20gHRHe5l" version="22.1.0" type="device">
  <diagram name="Page-1" id="l71naIufkB1eGUMvZPfa">
    <mxGraphModel dx="2333" dy="1187" grid="1" gridSize="10" guides="1" tooltips="1" connect="1" arrows="1" fold="1" page="1" pageScale="1" pageWidth="4681" pageHeight="3300" math="0" shadow="0">
      <root>
        <mxCell id="0" />
        <mxCell id="1" parent="0" />
        <mxCell id="0YH_L1Omuz1cofdH6k7x-50" value="Owner" style="shape=table;startSize=30;container=1;collapsible=1;childLayout=tableLayout;fixedRows=1;rowLines=0;fontStyle=1;align=center;resizeLast=1;html=1;" parent="1" vertex="1">
          <mxGeometry x="160" y="960" width="180" height="120" as="geometry" />
        </mxCell>
        <mxCell id="0YH_L1Omuz1cofdH6k7x-51" value="" style="shape=tableRow;horizontal=0;startSize=0;swimlaneHead=0;swimlaneBody=0;fillColor=none;collapsible=0;dropTarget=0;points=[[0,0.5],[1,0.5]];portConstraint=eastwest;top=0;left=0;right=0;bottom=1;" parent="0YH_L1Omuz1cofdH6k7x-50" vertex="1">
          <mxGeometry y="30" width="180" height="30" as="geometry" />
        </mxCell>
        <mxCell id="0YH_L1Omuz1cofdH6k7x-52" value="PK" style="shape=partialRectangle;connectable=0;fillColor=none;top=0;left=0;bottom=0;right=0;fontStyle=1;overflow=hidden;whiteSpace=wrap;html=1;" parent="0YH_L1Omuz1cofdH6k7x-51" vertex="1">
          <mxGeometry width="30" height="30" as="geometry">
            <mxRectangle width="30" height="30" as="alternateBounds" />
          </mxGeometry>
        </mxCell>
        <mxCell id="0YH_L1Omuz1cofdH6k7x-53" value="OwnerID" style="shape=partialRectangle;connectable=0;fillColor=none;top=0;left=0;bottom=0;right=0;align=left;spacingLeft=6;fontStyle=5;overflow=hidden;whiteSpace=wrap;html=1;" parent="0YH_L1Omuz1cofdH6k7x-51" vertex="1">
          <mxGeometry x="30" width="150" height="30" as="geometry">
            <mxRectangle width="150" height="30" as="alternateBounds" />
          </mxGeometry>
        </mxCell>
        <mxCell id="jWB8rzD-ewSJsVIUuiAU-2" style="shape=tableRow;horizontal=0;startSize=0;swimlaneHead=0;swimlaneBody=0;fillColor=none;collapsible=0;dropTarget=0;points=[[0,0.5],[1,0.5]];portConstraint=eastwest;top=0;left=0;right=0;bottom=1;" vertex="1" parent="0YH_L1Omuz1cofdH6k7x-50">
          <mxGeometry y="60" width="180" height="30" as="geometry" />
        </mxCell>
        <mxCell id="jWB8rzD-ewSJsVIUuiAU-3" style="shape=partialRectangle;connectable=0;fillColor=none;top=0;left=0;bottom=0;right=0;fontStyle=1;overflow=hidden;whiteSpace=wrap;html=1;" vertex="1" parent="jWB8rzD-ewSJsVIUuiAU-2">
          <mxGeometry width="30" height="30" as="geometry">
            <mxRectangle width="30" height="30" as="alternateBounds" />
          </mxGeometry>
        </mxCell>
        <mxCell id="jWB8rzD-ewSJsVIUuiAU-4" value="Name" style="shape=partialRectangle;connectable=0;fillColor=none;top=0;left=0;bottom=0;right=0;align=left;spacingLeft=6;fontStyle=5;overflow=hidden;whiteSpace=wrap;html=1;" vertex="1" parent="jWB8rzD-ewSJsVIUuiAU-2">
          <mxGeometry x="30" width="150" height="30" as="geometry">
            <mxRectangle width="150" height="30" as="alternateBounds" />
          </mxGeometry>
        </mxCell>
        <mxCell id="jWB8rzD-ewSJsVIUuiAU-5" style="shape=tableRow;horizontal=0;startSize=0;swimlaneHead=0;swimlaneBody=0;fillColor=none;collapsible=0;dropTarget=0;points=[[0,0.5],[1,0.5]];portConstraint=eastwest;top=0;left=0;right=0;bottom=1;" vertex="1" parent="0YH_L1Omuz1cofdH6k7x-50">
          <mxGeometry y="90" width="180" height="30" as="geometry" />
        </mxCell>
        <mxCell id="jWB8rzD-ewSJsVIUuiAU-6" style="shape=partialRectangle;connectable=0;fillColor=none;top=0;left=0;bottom=0;right=0;fontStyle=1;overflow=hidden;whiteSpace=wrap;html=1;" vertex="1" parent="jWB8rzD-ewSJsVIUuiAU-5">
          <mxGeometry width="30" height="30" as="geometry">
            <mxRectangle width="30" height="30" as="alternateBounds" />
          </mxGeometry>
        </mxCell>
        <mxCell id="jWB8rzD-ewSJsVIUuiAU-7" value="Contact_Info" style="shape=partialRectangle;connectable=0;fillColor=none;top=0;left=0;bottom=0;right=0;align=left;spacingLeft=6;fontStyle=5;overflow=hidden;whiteSpace=wrap;html=1;" vertex="1" parent="jWB8rzD-ewSJsVIUuiAU-5">
          <mxGeometry x="30" width="150" height="30" as="geometry">
            <mxRectangle width="150" height="30" as="alternateBounds" />
          </mxGeometry>
        </mxCell>
        <mxCell id="0YH_L1Omuz1cofdH6k7x-54" value="Pets" style="shape=table;startSize=30;container=1;collapsible=1;childLayout=tableLayout;fixedRows=1;rowLines=0;fontStyle=1;align=center;resizeLast=1;html=1;" parent="1" vertex="1">
          <mxGeometry x="600" y="960" width="180" height="150" as="geometry" />
        </mxCell>
        <mxCell id="0YH_L1Omuz1cofdH6k7x-55" value="" style="shape=tableRow;horizontal=0;startSize=0;swimlaneHead=0;swimlaneBody=0;fillColor=none;collapsible=0;dropTarget=0;points=[[0,0.5],[1,0.5]];portConstraint=eastwest;top=0;left=0;right=0;bottom=1;" parent="0YH_L1Omuz1cofdH6k7x-54" vertex="1">
          <mxGeometry y="30" width="180" height="30" as="geometry" />
        </mxCell>
        <mxCell id="0YH_L1Omuz1cofdH6k7x-56" value="PK" style="shape=partialRectangle;connectable=0;fillColor=none;top=0;left=0;bottom=0;right=0;fontStyle=1;overflow=hidden;whiteSpace=wrap;html=1;" parent="0YH_L1Omuz1cofdH6k7x-55" vertex="1">
          <mxGeometry width="30" height="30" as="geometry">
            <mxRectangle width="30" height="30" as="alternateBounds" />
          </mxGeometry>
        </mxCell>
        <mxCell id="0YH_L1Omuz1cofdH6k7x-57" value="PetID" style="shape=partialRectangle;connectable=0;fillColor=none;top=0;left=0;bottom=0;right=0;align=left;spacingLeft=6;fontStyle=5;overflow=hidden;whiteSpace=wrap;html=1;" parent="0YH_L1Omuz1cofdH6k7x-55" vertex="1">
          <mxGeometry x="30" width="150" height="30" as="geometry">
            <mxRectangle width="150" height="30" as="alternateBounds" />
          </mxGeometry>
        </mxCell>
        <mxCell id="0YH_L1Omuz1cofdH6k7x-58" style="shape=tableRow;horizontal=0;startSize=0;swimlaneHead=0;swimlaneBody=0;fillColor=none;collapsible=0;dropTarget=0;points=[[0,0.5],[1,0.5]];portConstraint=eastwest;top=0;left=0;right=0;bottom=0;" parent="0YH_L1Omuz1cofdH6k7x-54" vertex="1">
          <mxGeometry y="60" width="180" height="30" as="geometry" />
        </mxCell>
        <mxCell id="0YH_L1Omuz1cofdH6k7x-59" style="shape=partialRectangle;connectable=0;fillColor=none;top=0;left=0;bottom=0;right=0;editable=1;overflow=hidden;whiteSpace=wrap;html=1;" parent="0YH_L1Omuz1cofdH6k7x-58" vertex="1">
          <mxGeometry width="30" height="30" as="geometry">
            <mxRectangle width="30" height="30" as="alternateBounds" />
          </mxGeometry>
        </mxCell>
        <mxCell id="0YH_L1Omuz1cofdH6k7x-60" value="ServiceID" style="shape=partialRectangle;connectable=0;fillColor=none;top=0;left=0;bottom=0;right=0;align=left;spacingLeft=6;overflow=hidden;whiteSpace=wrap;html=1;" parent="0YH_L1Omuz1cofdH6k7x-58" vertex="1">
          <mxGeometry x="30" width="150" height="30" as="geometry">
            <mxRectangle width="150" height="30" as="alternateBounds" />
          </mxGeometry>
        </mxCell>
        <mxCell id="0YH_L1Omuz1cofdH6k7x-61" style="shape=tableRow;horizontal=0;startSize=0;swimlaneHead=0;swimlaneBody=0;fillColor=none;collapsible=0;dropTarget=0;points=[[0,0.5],[1,0.5]];portConstraint=eastwest;top=0;left=0;right=0;bottom=0;" parent="0YH_L1Omuz1cofdH6k7x-54" vertex="1">
          <mxGeometry y="90" width="180" height="30" as="geometry" />
        </mxCell>
        <mxCell id="0YH_L1Omuz1cofdH6k7x-62" style="shape=partialRectangle;connectable=0;fillColor=none;top=0;left=0;bottom=0;right=0;editable=1;overflow=hidden;whiteSpace=wrap;html=1;" parent="0YH_L1Omuz1cofdH6k7x-61" vertex="1">
          <mxGeometry width="30" height="30" as="geometry">
            <mxRectangle width="30" height="30" as="alternateBounds" />
          </mxGeometry>
        </mxCell>
        <mxCell id="0YH_L1Omuz1cofdH6k7x-63" value="Species" style="shape=partialRectangle;connectable=0;fillColor=none;top=0;left=0;bottom=0;right=0;align=left;spacingLeft=6;overflow=hidden;whiteSpace=wrap;html=1;" parent="0YH_L1Omuz1cofdH6k7x-61" vertex="1">
          <mxGeometry x="30" width="150" height="30" as="geometry">
            <mxRectangle width="150" height="30" as="alternateBounds" />
          </mxGeometry>
        </mxCell>
        <mxCell id="jWB8rzD-ewSJsVIUuiAU-9" style="shape=tableRow;horizontal=0;startSize=0;swimlaneHead=0;swimlaneBody=0;fillColor=none;collapsible=0;dropTarget=0;points=[[0,0.5],[1,0.5]];portConstraint=eastwest;top=0;left=0;right=0;bottom=0;" vertex="1" parent="0YH_L1Omuz1cofdH6k7x-54">
          <mxGeometry y="120" width="180" height="30" as="geometry" />
        </mxCell>
        <mxCell id="jWB8rzD-ewSJsVIUuiAU-10" style="shape=partialRectangle;connectable=0;fillColor=none;top=0;left=0;bottom=0;right=0;editable=1;overflow=hidden;whiteSpace=wrap;html=1;" vertex="1" parent="jWB8rzD-ewSJsVIUuiAU-9">
          <mxGeometry width="30" height="30" as="geometry">
            <mxRectangle width="30" height="30" as="alternateBounds" />
          </mxGeometry>
        </mxCell>
        <mxCell id="jWB8rzD-ewSJsVIUuiAU-11" value="Name" style="shape=partialRectangle;connectable=0;fillColor=none;top=0;left=0;bottom=0;right=0;align=left;spacingLeft=6;overflow=hidden;whiteSpace=wrap;html=1;" vertex="1" parent="jWB8rzD-ewSJsVIUuiAU-9">
          <mxGeometry x="30" width="150" height="30" as="geometry">
            <mxRectangle width="150" height="30" as="alternateBounds" />
          </mxGeometry>
        </mxCell>
        <mxCell id="0YH_L1Omuz1cofdH6k7x-64" value="Staff" style="shape=table;startSize=30;container=1;collapsible=1;childLayout=tableLayout;fixedRows=1;rowLines=0;fontStyle=1;align=center;resizeLast=1;html=1;" parent="1" vertex="1">
          <mxGeometry x="1630" y="1100" width="180" height="120" as="geometry" />
        </mxCell>
        <mxCell id="0YH_L1Omuz1cofdH6k7x-65" value="" style="shape=tableRow;horizontal=0;startSize=0;swimlaneHead=0;swimlaneBody=0;fillColor=none;collapsible=0;dropTarget=0;points=[[0,0.5],[1,0.5]];portConstraint=eastwest;top=0;left=0;right=0;bottom=1;" parent="0YH_L1Omuz1cofdH6k7x-64" vertex="1">
          <mxGeometry y="30" width="180" height="30" as="geometry" />
        </mxCell>
        <mxCell id="0YH_L1Omuz1cofdH6k7x-66" value="PK" style="shape=partialRectangle;connectable=0;fillColor=none;top=0;left=0;bottom=0;right=0;fontStyle=1;overflow=hidden;whiteSpace=wrap;html=1;" parent="0YH_L1Omuz1cofdH6k7x-65" vertex="1">
          <mxGeometry width="30" height="30" as="geometry">
            <mxRectangle width="30" height="30" as="alternateBounds" />
          </mxGeometry>
        </mxCell>
        <mxCell id="0YH_L1Omuz1cofdH6k7x-67" value="StaffID" style="shape=partialRectangle;connectable=0;fillColor=none;top=0;left=0;bottom=0;right=0;align=left;spacingLeft=6;fontStyle=5;overflow=hidden;whiteSpace=wrap;html=1;" parent="0YH_L1Omuz1cofdH6k7x-65" vertex="1">
          <mxGeometry x="30" width="150" height="30" as="geometry">
            <mxRectangle width="150" height="30" as="alternateBounds" />
          </mxGeometry>
        </mxCell>
        <mxCell id="0YH_L1Omuz1cofdH6k7x-68" value="" style="shape=tableRow;horizontal=0;startSize=0;swimlaneHead=0;swimlaneBody=0;fillColor=none;collapsible=0;dropTarget=0;points=[[0,0.5],[1,0.5]];portConstraint=eastwest;top=0;left=0;right=0;bottom=0;" parent="0YH_L1Omuz1cofdH6k7x-64" vertex="1">
          <mxGeometry y="60" width="180" height="30" as="geometry" />
        </mxCell>
        <mxCell id="0YH_L1Omuz1cofdH6k7x-69" value="" style="shape=partialRectangle;connectable=0;fillColor=none;top=0;left=0;bottom=0;right=0;editable=1;overflow=hidden;whiteSpace=wrap;html=1;" parent="0YH_L1Omuz1cofdH6k7x-68" vertex="1">
          <mxGeometry width="30" height="30" as="geometry">
            <mxRectangle width="30" height="30" as="alternateBounds" />
          </mxGeometry>
        </mxCell>
        <mxCell id="0YH_L1Omuz1cofdH6k7x-70" value="Role" style="shape=partialRectangle;connectable=0;fillColor=none;top=0;left=0;bottom=0;right=0;align=left;spacingLeft=6;overflow=hidden;whiteSpace=wrap;html=1;" parent="0YH_L1Omuz1cofdH6k7x-68" vertex="1">
          <mxGeometry x="30" width="150" height="30" as="geometry">
            <mxRectangle width="150" height="30" as="alternateBounds" />
          </mxGeometry>
        </mxCell>
        <mxCell id="jWB8rzD-ewSJsVIUuiAU-12" style="shape=tableRow;horizontal=0;startSize=0;swimlaneHead=0;swimlaneBody=0;fillColor=none;collapsible=0;dropTarget=0;points=[[0,0.5],[1,0.5]];portConstraint=eastwest;top=0;left=0;right=0;bottom=0;" vertex="1" parent="0YH_L1Omuz1cofdH6k7x-64">
          <mxGeometry y="90" width="180" height="30" as="geometry" />
        </mxCell>
        <mxCell id="jWB8rzD-ewSJsVIUuiAU-13" style="shape=partialRectangle;connectable=0;fillColor=none;top=0;left=0;bottom=0;right=0;editable=1;overflow=hidden;whiteSpace=wrap;html=1;" vertex="1" parent="jWB8rzD-ewSJsVIUuiAU-12">
          <mxGeometry width="30" height="30" as="geometry">
            <mxRectangle width="30" height="30" as="alternateBounds" />
          </mxGeometry>
        </mxCell>
        <mxCell id="jWB8rzD-ewSJsVIUuiAU-14" value="Name" style="shape=partialRectangle;connectable=0;fillColor=none;top=0;left=0;bottom=0;right=0;align=left;spacingLeft=6;overflow=hidden;whiteSpace=wrap;html=1;" vertex="1" parent="jWB8rzD-ewSJsVIUuiAU-12">
          <mxGeometry x="30" width="150" height="30" as="geometry">
            <mxRectangle width="150" height="30" as="alternateBounds" />
          </mxGeometry>
        </mxCell>
        <mxCell id="0YH_L1Omuz1cofdH6k7x-71" value="Appointments" style="shape=table;startSize=30;container=1;collapsible=1;childLayout=tableLayout;fixedRows=1;rowLines=0;fontStyle=1;align=center;resizeLast=1;html=1;" parent="1" vertex="1">
          <mxGeometry x="842.5" y="960" width="180" height="180" as="geometry" />
        </mxCell>
        <mxCell id="0YH_L1Omuz1cofdH6k7x-72" value="" style="shape=tableRow;horizontal=0;startSize=0;swimlaneHead=0;swimlaneBody=0;fillColor=none;collapsible=0;dropTarget=0;points=[[0,0.5],[1,0.5]];portConstraint=eastwest;top=0;left=0;right=0;bottom=1;" parent="0YH_L1Omuz1cofdH6k7x-71" vertex="1">
          <mxGeometry y="30" width="180" height="30" as="geometry" />
        </mxCell>
        <mxCell id="0YH_L1Omuz1cofdH6k7x-73" value="PK" style="shape=partialRectangle;connectable=0;fillColor=none;top=0;left=0;bottom=0;right=0;fontStyle=1;overflow=hidden;whiteSpace=wrap;html=1;" parent="0YH_L1Omuz1cofdH6k7x-72" vertex="1">
          <mxGeometry width="30" height="30" as="geometry">
            <mxRectangle width="30" height="30" as="alternateBounds" />
          </mxGeometry>
        </mxCell>
        <mxCell id="0YH_L1Omuz1cofdH6k7x-74" value="AppointmentID" style="shape=partialRectangle;connectable=0;fillColor=none;top=0;left=0;bottom=0;right=0;align=left;spacingLeft=6;fontStyle=5;overflow=hidden;whiteSpace=wrap;html=1;" parent="0YH_L1Omuz1cofdH6k7x-72" vertex="1">
          <mxGeometry x="30" width="150" height="30" as="geometry">
            <mxRectangle width="150" height="30" as="alternateBounds" />
          </mxGeometry>
        </mxCell>
        <mxCell id="0YH_L1Omuz1cofdH6k7x-75" style="shape=tableRow;horizontal=0;startSize=0;swimlaneHead=0;swimlaneBody=0;fillColor=none;collapsible=0;dropTarget=0;points=[[0,0.5],[1,0.5]];portConstraint=eastwest;top=0;left=0;right=0;bottom=0;" parent="0YH_L1Omuz1cofdH6k7x-71" vertex="1">
          <mxGeometry y="60" width="180" height="30" as="geometry" />
        </mxCell>
        <mxCell id="0YH_L1Omuz1cofdH6k7x-76" style="shape=partialRectangle;connectable=0;fillColor=none;top=0;left=0;bottom=0;right=0;editable=1;overflow=hidden;whiteSpace=wrap;html=1;" parent="0YH_L1Omuz1cofdH6k7x-75" vertex="1">
          <mxGeometry width="30" height="30" as="geometry">
            <mxRectangle width="30" height="30" as="alternateBounds" />
          </mxGeometry>
        </mxCell>
        <mxCell id="0YH_L1Omuz1cofdH6k7x-77" value="PetID" style="shape=partialRectangle;connectable=0;fillColor=none;top=0;left=0;bottom=0;right=0;align=left;spacingLeft=6;overflow=hidden;whiteSpace=wrap;html=1;" parent="0YH_L1Omuz1cofdH6k7x-75" vertex="1">
          <mxGeometry x="30" width="150" height="30" as="geometry">
            <mxRectangle width="150" height="30" as="alternateBounds" />
          </mxGeometry>
        </mxCell>
        <mxCell id="0YH_L1Omuz1cofdH6k7x-78" style="shape=tableRow;horizontal=0;startSize=0;swimlaneHead=0;swimlaneBody=0;fillColor=none;collapsible=0;dropTarget=0;points=[[0,0.5],[1,0.5]];portConstraint=eastwest;top=0;left=0;right=0;bottom=0;" parent="0YH_L1Omuz1cofdH6k7x-71" vertex="1">
          <mxGeometry y="90" width="180" height="30" as="geometry" />
        </mxCell>
        <mxCell id="0YH_L1Omuz1cofdH6k7x-79" style="shape=partialRectangle;connectable=0;fillColor=none;top=0;left=0;bottom=0;right=0;editable=1;overflow=hidden;whiteSpace=wrap;html=1;" parent="0YH_L1Omuz1cofdH6k7x-78" vertex="1">
          <mxGeometry width="30" height="30" as="geometry">
            <mxRectangle width="30" height="30" as="alternateBounds" />
          </mxGeometry>
        </mxCell>
        <mxCell id="0YH_L1Omuz1cofdH6k7x-80" value="ServiceID" style="shape=partialRectangle;connectable=0;fillColor=none;top=0;left=0;bottom=0;right=0;align=left;spacingLeft=6;overflow=hidden;whiteSpace=wrap;html=1;" parent="0YH_L1Omuz1cofdH6k7x-78" vertex="1">
          <mxGeometry x="30" width="150" height="30" as="geometry">
            <mxRectangle width="150" height="30" as="alternateBounds" />
          </mxGeometry>
        </mxCell>
        <mxCell id="0YH_L1Omuz1cofdH6k7x-81" style="shape=tableRow;horizontal=0;startSize=0;swimlaneHead=0;swimlaneBody=0;fillColor=none;collapsible=0;dropTarget=0;points=[[0,0.5],[1,0.5]];portConstraint=eastwest;top=0;left=0;right=0;bottom=0;" parent="0YH_L1Omuz1cofdH6k7x-71" vertex="1">
          <mxGeometry y="120" width="180" height="30" as="geometry" />
        </mxCell>
        <mxCell id="0YH_L1Omuz1cofdH6k7x-82" style="shape=partialRectangle;connectable=0;fillColor=none;top=0;left=0;bottom=0;right=0;editable=1;overflow=hidden;whiteSpace=wrap;html=1;" parent="0YH_L1Omuz1cofdH6k7x-81" vertex="1">
          <mxGeometry width="30" height="30" as="geometry">
            <mxRectangle width="30" height="30" as="alternateBounds" />
          </mxGeometry>
        </mxCell>
        <mxCell id="0YH_L1Omuz1cofdH6k7x-83" value="StaffID" style="shape=partialRectangle;connectable=0;fillColor=none;top=0;left=0;bottom=0;right=0;align=left;spacingLeft=6;overflow=hidden;whiteSpace=wrap;html=1;" parent="0YH_L1Omuz1cofdH6k7x-81" vertex="1">
          <mxGeometry x="30" width="150" height="30" as="geometry">
            <mxRectangle width="150" height="30" as="alternateBounds" />
          </mxGeometry>
        </mxCell>
        <mxCell id="0YH_L1Omuz1cofdH6k7x-84" style="shape=tableRow;horizontal=0;startSize=0;swimlaneHead=0;swimlaneBody=0;fillColor=none;collapsible=0;dropTarget=0;points=[[0,0.5],[1,0.5]];portConstraint=eastwest;top=0;left=0;right=0;bottom=0;" parent="0YH_L1Omuz1cofdH6k7x-71" vertex="1">
          <mxGeometry y="150" width="180" height="30" as="geometry" />
        </mxCell>
        <mxCell id="0YH_L1Omuz1cofdH6k7x-85" style="shape=partialRectangle;connectable=0;fillColor=none;top=0;left=0;bottom=0;right=0;editable=1;overflow=hidden;whiteSpace=wrap;html=1;" parent="0YH_L1Omuz1cofdH6k7x-84" vertex="1">
          <mxGeometry width="30" height="30" as="geometry">
            <mxRectangle width="30" height="30" as="alternateBounds" />
          </mxGeometry>
        </mxCell>
        <mxCell id="0YH_L1Omuz1cofdH6k7x-86" value="Date_And_Time" style="shape=partialRectangle;connectable=0;fillColor=none;top=0;left=0;bottom=0;right=0;align=left;spacingLeft=6;overflow=hidden;whiteSpace=wrap;html=1;" parent="0YH_L1Omuz1cofdH6k7x-84" vertex="1">
          <mxGeometry x="30" width="150" height="30" as="geometry">
            <mxRectangle width="150" height="30" as="alternateBounds" />
          </mxGeometry>
        </mxCell>
        <mxCell id="0YH_L1Omuz1cofdH6k7x-87" value="Specialize" style="shape=table;startSize=30;container=1;collapsible=1;childLayout=tableLayout;fixedRows=1;rowLines=0;fontStyle=1;align=center;resizeLast=1;html=1;" parent="1" vertex="1">
          <mxGeometry x="1630" y="880" width="180" height="90" as="geometry" />
        </mxCell>
        <mxCell id="0YH_L1Omuz1cofdH6k7x-88" value="" style="shape=tableRow;horizontal=0;startSize=0;swimlaneHead=0;swimlaneBody=0;fillColor=none;collapsible=0;dropTarget=0;points=[[0,0.5],[1,0.5]];portConstraint=eastwest;top=0;left=0;right=0;bottom=1;" parent="0YH_L1Omuz1cofdH6k7x-87" vertex="1">
          <mxGeometry y="30" width="180" height="30" as="geometry" />
        </mxCell>
        <mxCell id="0YH_L1Omuz1cofdH6k7x-89" value="PK" style="shape=partialRectangle;connectable=0;fillColor=none;top=0;left=0;bottom=0;right=0;fontStyle=1;overflow=hidden;whiteSpace=wrap;html=1;" parent="0YH_L1Omuz1cofdH6k7x-88" vertex="1">
          <mxGeometry width="30" height="30" as="geometry">
            <mxRectangle width="30" height="30" as="alternateBounds" />
          </mxGeometry>
        </mxCell>
        <mxCell id="0YH_L1Omuz1cofdH6k7x-90" value="SpecializeID" style="shape=partialRectangle;connectable=0;fillColor=none;top=0;left=0;bottom=0;right=0;align=left;spacingLeft=6;fontStyle=5;overflow=hidden;whiteSpace=wrap;html=1;" parent="0YH_L1Omuz1cofdH6k7x-88" vertex="1">
          <mxGeometry x="30" width="150" height="30" as="geometry">
            <mxRectangle width="150" height="30" as="alternateBounds" />
          </mxGeometry>
        </mxCell>
        <mxCell id="0YH_L1Omuz1cofdH6k7x-91" value="" style="shape=tableRow;horizontal=0;startSize=0;swimlaneHead=0;swimlaneBody=0;fillColor=none;collapsible=0;dropTarget=0;points=[[0,0.5],[1,0.5]];portConstraint=eastwest;top=0;left=0;right=0;bottom=0;" parent="0YH_L1Omuz1cofdH6k7x-87" vertex="1">
          <mxGeometry y="60" width="180" height="30" as="geometry" />
        </mxCell>
        <mxCell id="0YH_L1Omuz1cofdH6k7x-92" value="" style="shape=partialRectangle;connectable=0;fillColor=none;top=0;left=0;bottom=0;right=0;editable=1;overflow=hidden;whiteSpace=wrap;html=1;" parent="0YH_L1Omuz1cofdH6k7x-91" vertex="1">
          <mxGeometry width="30" height="30" as="geometry">
            <mxRectangle width="30" height="30" as="alternateBounds" />
          </mxGeometry>
        </mxCell>
        <mxCell id="0YH_L1Omuz1cofdH6k7x-93" value="Specialize_In" style="shape=partialRectangle;connectable=0;fillColor=none;top=0;left=0;bottom=0;right=0;align=left;spacingLeft=6;overflow=hidden;whiteSpace=wrap;html=1;" parent="0YH_L1Omuz1cofdH6k7x-91" vertex="1">
          <mxGeometry x="30" width="150" height="30" as="geometry">
            <mxRectangle width="150" height="30" as="alternateBounds" />
          </mxGeometry>
        </mxCell>
        <mxCell id="0YH_L1Omuz1cofdH6k7x-94" value="Pet_Owner" style="swimlane;fontStyle=0;childLayout=stackLayout;horizontal=1;startSize=26;horizontalStack=0;resizeParent=1;resizeParentMax=0;resizeLast=0;collapsible=1;marginBottom=0;align=center;fontSize=14;" parent="1" vertex="1">
          <mxGeometry x="380" y="960" width="160" height="86" as="geometry" />
        </mxCell>
        <mxCell id="0YH_L1Omuz1cofdH6k7x-95" value="OwnerID" style="text;strokeColor=none;fillColor=none;spacingLeft=4;spacingRight=4;overflow=hidden;rotatable=0;points=[[0,0.5],[1,0.5]];portConstraint=eastwest;fontSize=12;whiteSpace=wrap;html=1;" parent="0YH_L1Omuz1cofdH6k7x-94" vertex="1">
          <mxGeometry y="26" width="160" height="30" as="geometry" />
        </mxCell>
        <mxCell id="0YH_L1Omuz1cofdH6k7x-96" value="PetID" style="text;strokeColor=none;fillColor=none;spacingLeft=4;spacingRight=4;overflow=hidden;rotatable=0;points=[[0,0.5],[1,0.5]];portConstraint=eastwest;fontSize=12;whiteSpace=wrap;html=1;" parent="0YH_L1Omuz1cofdH6k7x-94" vertex="1">
          <mxGeometry y="56" width="160" height="30" as="geometry" />
        </mxCell>
        <mxCell id="0YH_L1Omuz1cofdH6k7x-98" value="Staff_Specilize" style="swimlane;fontStyle=0;childLayout=stackLayout;horizontal=1;startSize=26;horizontalStack=0;resizeParent=1;resizeParentMax=0;resizeLast=0;collapsible=1;marginBottom=0;align=center;fontSize=14;" parent="1" vertex="1">
          <mxGeometry x="1410" y="960" width="160" height="116" as="geometry" />
        </mxCell>
        <mxCell id="0YH_L1Omuz1cofdH6k7x-99" value="SpecializeID" style="text;strokeColor=none;fillColor=none;spacingLeft=4;spacingRight=4;overflow=hidden;rotatable=0;points=[[0,0.5],[1,0.5]];portConstraint=eastwest;fontSize=12;whiteSpace=wrap;html=1;" parent="0YH_L1Omuz1cofdH6k7x-98" vertex="1">
          <mxGeometry y="26" width="160" height="30" as="geometry" />
        </mxCell>
        <mxCell id="0YH_L1Omuz1cofdH6k7x-100" value="StaffID" style="text;strokeColor=none;fillColor=none;spacingLeft=4;spacingRight=4;overflow=hidden;rotatable=0;points=[[0,0.5],[1,0.5]];portConstraint=eastwest;fontSize=12;whiteSpace=wrap;html=1;" parent="0YH_L1Omuz1cofdH6k7x-98" vertex="1">
          <mxGeometry y="56" width="160" height="30" as="geometry" />
        </mxCell>
        <mxCell id="0YH_L1Omuz1cofdH6k7x-101" value="Service_Type" style="text;strokeColor=none;fillColor=none;spacingLeft=4;spacingRight=4;overflow=hidden;rotatable=0;points=[[0,0.5],[1,0.5]];portConstraint=eastwest;fontSize=12;whiteSpace=wrap;html=1;" parent="0YH_L1Omuz1cofdH6k7x-98" vertex="1">
          <mxGeometry y="86" width="160" height="30" as="geometry" />
        </mxCell>
        <mxCell id="0YH_L1Omuz1cofdH6k7x-102" value="" style="edgeStyle=orthogonalEdgeStyle;fontSize=12;html=1;endArrow=ERoneToMany;rounded=0;" parent="1" source="0YH_L1Omuz1cofdH6k7x-118" target="0YH_L1Omuz1cofdH6k7x-101" edge="1">
          <mxGeometry width="100" height="100" relative="1" as="geometry">
            <mxPoint x="860" y="1200" as="sourcePoint" />
            <mxPoint x="960" y="1100" as="targetPoint" />
          </mxGeometry>
        </mxCell>
        <mxCell id="0YH_L1Omuz1cofdH6k7x-104" value="" style="edgeStyle=entityRelationEdgeStyle;fontSize=12;html=1;endArrow=ERoneToMany;rounded=0;entryX=0;entryY=0.5;entryDx=0;entryDy=0;" parent="1" source="0YH_L1Omuz1cofdH6k7x-55" target="0YH_L1Omuz1cofdH6k7x-75" edge="1">
          <mxGeometry width="100" height="100" relative="1" as="geometry">
            <mxPoint x="910" y="860" as="sourcePoint" />
            <mxPoint x="960" y="1100" as="targetPoint" />
          </mxGeometry>
        </mxCell>
        <mxCell id="0YH_L1Omuz1cofdH6k7x-106" value="" style="edgeStyle=entityRelationEdgeStyle;fontSize=12;html=1;endArrow=ERmany;startArrow=ERmany;rounded=0;" parent="1" source="0YH_L1Omuz1cofdH6k7x-65" target="0YH_L1Omuz1cofdH6k7x-100" edge="1">
          <mxGeometry width="100" height="100" relative="1" as="geometry">
            <mxPoint x="1490" y="970" as="sourcePoint" />
            <mxPoint x="1590" y="870" as="targetPoint" />
          </mxGeometry>
        </mxCell>
        <mxCell id="0YH_L1Omuz1cofdH6k7x-107" value="" style="edgeStyle=entityRelationEdgeStyle;fontSize=12;html=1;endArrow=ERmany;startArrow=ERmany;rounded=0;" parent="1" source="0YH_L1Omuz1cofdH6k7x-99" target="0YH_L1Omuz1cofdH6k7x-88" edge="1">
          <mxGeometry width="100" height="100" relative="1" as="geometry">
            <mxPoint x="1520" y="1285" as="sourcePoint" />
            <mxPoint x="1500" y="1061" as="targetPoint" />
          </mxGeometry>
        </mxCell>
        <mxCell id="0YH_L1Omuz1cofdH6k7x-108" value="Services" style="shape=table;startSize=30;container=1;collapsible=1;childLayout=tableLayout;fixedRows=1;rowLines=0;fontStyle=1;align=center;resizeLast=1;html=1;" parent="1" vertex="1">
          <mxGeometry x="1130" y="960" width="180" height="150.00000000000023" as="geometry" />
        </mxCell>
        <mxCell id="0YH_L1Omuz1cofdH6k7x-109" value="" style="shape=tableRow;horizontal=0;startSize=0;swimlaneHead=0;swimlaneBody=0;fillColor=none;collapsible=0;dropTarget=0;points=[[0,0.5],[1,0.5]];portConstraint=eastwest;top=0;left=0;right=0;bottom=1;" parent="0YH_L1Omuz1cofdH6k7x-108" vertex="1">
          <mxGeometry y="30" width="180" height="30" as="geometry" />
        </mxCell>
        <mxCell id="0YH_L1Omuz1cofdH6k7x-110" value="PK" style="shape=partialRectangle;connectable=0;fillColor=none;top=0;left=0;bottom=0;right=0;fontStyle=1;overflow=hidden;whiteSpace=wrap;html=1;" parent="0YH_L1Omuz1cofdH6k7x-109" vertex="1">
          <mxGeometry width="30" height="30" as="geometry">
            <mxRectangle width="30" height="30" as="alternateBounds" />
          </mxGeometry>
        </mxCell>
        <mxCell id="0YH_L1Omuz1cofdH6k7x-111" value="ServiceID" style="shape=partialRectangle;connectable=0;fillColor=none;top=0;left=0;bottom=0;right=0;align=left;spacingLeft=6;fontStyle=5;overflow=hidden;whiteSpace=wrap;html=1;" parent="0YH_L1Omuz1cofdH6k7x-109" vertex="1">
          <mxGeometry x="30" width="150" height="30" as="geometry">
            <mxRectangle width="150" height="30" as="alternateBounds" />
          </mxGeometry>
        </mxCell>
        <mxCell id="0YH_L1Omuz1cofdH6k7x-112" style="shape=tableRow;horizontal=0;startSize=0;swimlaneHead=0;swimlaneBody=0;fillColor=none;collapsible=0;dropTarget=0;points=[[0,0.5],[1,0.5]];portConstraint=eastwest;top=0;left=0;right=0;bottom=0;" parent="0YH_L1Omuz1cofdH6k7x-108" vertex="1">
          <mxGeometry y="60" width="180" height="30" as="geometry" />
        </mxCell>
        <mxCell id="0YH_L1Omuz1cofdH6k7x-113" style="shape=partialRectangle;connectable=0;fillColor=none;top=0;left=0;bottom=0;right=0;editable=1;overflow=hidden;whiteSpace=wrap;html=1;" parent="0YH_L1Omuz1cofdH6k7x-112" vertex="1">
          <mxGeometry width="30" height="30" as="geometry">
            <mxRectangle width="30" height="30" as="alternateBounds" />
          </mxGeometry>
        </mxCell>
        <mxCell id="0YH_L1Omuz1cofdH6k7x-114" value="Price" style="shape=partialRectangle;connectable=0;fillColor=none;top=0;left=0;bottom=0;right=0;align=left;spacingLeft=6;overflow=hidden;whiteSpace=wrap;html=1;" parent="0YH_L1Omuz1cofdH6k7x-112" vertex="1">
          <mxGeometry x="30" width="150" height="30" as="geometry">
            <mxRectangle width="150" height="30" as="alternateBounds" />
          </mxGeometry>
        </mxCell>
        <mxCell id="0YH_L1Omuz1cofdH6k7x-115" style="shape=tableRow;horizontal=0;startSize=0;swimlaneHead=0;swimlaneBody=0;fillColor=none;collapsible=0;dropTarget=0;points=[[0,0.5],[1,0.5]];portConstraint=eastwest;top=0;left=0;right=0;bottom=0;" parent="0YH_L1Omuz1cofdH6k7x-108" vertex="1">
          <mxGeometry y="90" width="180" height="30" as="geometry" />
        </mxCell>
        <mxCell id="0YH_L1Omuz1cofdH6k7x-116" style="shape=partialRectangle;connectable=0;fillColor=none;top=0;left=0;bottom=0;right=0;editable=1;overflow=hidden;whiteSpace=wrap;html=1;" parent="0YH_L1Omuz1cofdH6k7x-115" vertex="1">
          <mxGeometry width="30" height="30" as="geometry">
            <mxRectangle width="30" height="30" as="alternateBounds" />
          </mxGeometry>
        </mxCell>
        <mxCell id="0YH_L1Omuz1cofdH6k7x-117" value="StaffID" style="shape=partialRectangle;connectable=0;fillColor=none;top=0;left=0;bottom=0;right=0;align=left;spacingLeft=6;overflow=hidden;whiteSpace=wrap;html=1;" parent="0YH_L1Omuz1cofdH6k7x-115" vertex="1">
          <mxGeometry x="30" width="150" height="30" as="geometry">
            <mxRectangle width="150" height="30" as="alternateBounds" />
          </mxGeometry>
        </mxCell>
        <mxCell id="0YH_L1Omuz1cofdH6k7x-118" value="" style="shape=tableRow;horizontal=0;startSize=0;swimlaneHead=0;swimlaneBody=0;fillColor=none;collapsible=0;dropTarget=0;points=[[0,0.5],[1,0.5]];portConstraint=eastwest;top=0;left=0;right=0;bottom=0;" parent="0YH_L1Omuz1cofdH6k7x-108" vertex="1">
          <mxGeometry y="120" width="180" height="30" as="geometry" />
        </mxCell>
        <mxCell id="0YH_L1Omuz1cofdH6k7x-119" value="" style="shape=partialRectangle;connectable=0;fillColor=none;top=0;left=0;bottom=0;right=0;editable=1;overflow=hidden;whiteSpace=wrap;html=1;" parent="0YH_L1Omuz1cofdH6k7x-118" vertex="1">
          <mxGeometry width="30" height="30" as="geometry">
            <mxRectangle width="30" height="30" as="alternateBounds" />
          </mxGeometry>
        </mxCell>
        <mxCell id="0YH_L1Omuz1cofdH6k7x-120" value="Type_Of_Service" style="shape=partialRectangle;connectable=0;fillColor=none;top=0;left=0;bottom=0;right=0;align=left;spacingLeft=6;overflow=hidden;whiteSpace=wrap;html=1;" parent="0YH_L1Omuz1cofdH6k7x-118" vertex="1">
          <mxGeometry x="30" width="150" height="30" as="geometry">
            <mxRectangle width="150" height="30" as="alternateBounds" />
          </mxGeometry>
        </mxCell>
        <mxCell id="0YH_L1Omuz1cofdH6k7x-123" value="Owner" style="rounded=1;whiteSpace=wrap;html=1;" parent="1" vertex="1">
          <mxGeometry x="270" y="430" width="120" height="60" as="geometry" />
        </mxCell>
        <mxCell id="0YH_L1Omuz1cofdH6k7x-124" value="OwnerID" style="ellipse;whiteSpace=wrap;html=1;" parent="1" vertex="1">
          <mxGeometry x="230" y="360" width="75" height="40" as="geometry" />
        </mxCell>
        <mxCell id="0YH_L1Omuz1cofdH6k7x-125" value="" style="endArrow=none;html=1;rounded=0;entryX=0.25;entryY=0;entryDx=0;entryDy=0;exitX=0.5;exitY=1;exitDx=0;exitDy=0;" parent="1" source="0YH_L1Omuz1cofdH6k7x-124" target="0YH_L1Omuz1cofdH6k7x-123" edge="1">
          <mxGeometry relative="1" as="geometry">
            <mxPoint x="120" y="440" as="sourcePoint" />
            <mxPoint x="280" y="440" as="targetPoint" />
          </mxGeometry>
        </mxCell>
        <mxCell id="0YH_L1Omuz1cofdH6k7x-131" value="Pets" style="rounded=1;whiteSpace=wrap;html=1;" parent="1" vertex="1">
          <mxGeometry x="605" y="430" width="120" height="60" as="geometry" />
        </mxCell>
        <mxCell id="0YH_L1Omuz1cofdH6k7x-132" value="PetID" style="ellipse;whiteSpace=wrap;html=1;" parent="1" vertex="1">
          <mxGeometry x="636.25" y="360" width="57.5" height="30" as="geometry" />
        </mxCell>
        <mxCell id="0YH_L1Omuz1cofdH6k7x-133" value="" style="endArrow=none;html=1;rounded=0;exitX=0.5;exitY=0;exitDx=0;exitDy=0;entryX=0.5;entryY=1;entryDx=0;entryDy=0;" parent="1" source="0YH_L1Omuz1cofdH6k7x-131" target="0YH_L1Omuz1cofdH6k7x-132" edge="1">
          <mxGeometry relative="1" as="geometry">
            <mxPoint x="525" y="380" as="sourcePoint" />
            <mxPoint x="685" y="380" as="targetPoint" />
          </mxGeometry>
        </mxCell>
        <mxCell id="0YH_L1Omuz1cofdH6k7x-134" value="Species" style="ellipse;whiteSpace=wrap;html=1;" parent="1" vertex="1">
          <mxGeometry x="695" y="530" width="75" height="40" as="geometry" />
        </mxCell>
        <mxCell id="0YH_L1Omuz1cofdH6k7x-136" value="" style="endArrow=none;html=1;rounded=0;exitX=0.5;exitY=0;exitDx=0;exitDy=0;entryX=0.75;entryY=1;entryDx=0;entryDy=0;" parent="1" source="0YH_L1Omuz1cofdH6k7x-134" target="0YH_L1Omuz1cofdH6k7x-131" edge="1">
          <mxGeometry relative="1" as="geometry">
            <mxPoint x="535" y="420" as="sourcePoint" />
            <mxPoint x="695" y="420" as="targetPoint" />
          </mxGeometry>
        </mxCell>
        <mxCell id="0YH_L1Omuz1cofdH6k7x-140" value="Appointments" style="rounded=1;whiteSpace=wrap;html=1;" parent="1" vertex="1">
          <mxGeometry x="1032.5" y="430" width="120" height="60" as="geometry" />
        </mxCell>
        <mxCell id="0YH_L1Omuz1cofdH6k7x-141" value="AppointmentID" style="ellipse;whiteSpace=wrap;html=1;" parent="1" vertex="1">
          <mxGeometry x="1037.5" y="340" width="110" height="40" as="geometry" />
        </mxCell>
        <mxCell id="0YH_L1Omuz1cofdH6k7x-142" value="" style="endArrow=none;html=1;rounded=0;exitX=0.5;exitY=0;exitDx=0;exitDy=0;entryX=0.5;entryY=1;entryDx=0;entryDy=0;" parent="1" source="0YH_L1Omuz1cofdH6k7x-140" target="0YH_L1Omuz1cofdH6k7x-141" edge="1">
          <mxGeometry relative="1" as="geometry">
            <mxPoint x="1082.5" y="530" as="sourcePoint" />
            <mxPoint x="1242.5" y="530" as="targetPoint" />
          </mxGeometry>
        </mxCell>
        <mxCell id="0YH_L1Omuz1cofdH6k7x-143" value="StaffID" style="ellipse;whiteSpace=wrap;html=1;" parent="1" vertex="1">
          <mxGeometry x="962.5" y="380" width="75" height="40" as="geometry" />
        </mxCell>
        <mxCell id="0YH_L1Omuz1cofdH6k7x-144" value="" style="endArrow=none;html=1;rounded=0;exitX=1;exitY=1;exitDx=0;exitDy=0;entryX=0.25;entryY=0;entryDx=0;entryDy=0;" parent="1" source="0YH_L1Omuz1cofdH6k7x-143" target="0YH_L1Omuz1cofdH6k7x-140" edge="1">
          <mxGeometry relative="1" as="geometry">
            <mxPoint x="932.5" y="500" as="sourcePoint" />
            <mxPoint x="1092.5" y="500" as="targetPoint" />
          </mxGeometry>
        </mxCell>
        <mxCell id="0YH_L1Omuz1cofdH6k7x-145" value="ServiceID" style="ellipse;whiteSpace=wrap;html=1;" parent="1" vertex="1">
          <mxGeometry x="980" y="550" width="75" height="40" as="geometry" />
        </mxCell>
        <mxCell id="0YH_L1Omuz1cofdH6k7x-146" value="Treatment" style="ellipse;whiteSpace=wrap;html=1;" parent="1" vertex="1">
          <mxGeometry x="910" y="500" width="67.5" height="40" as="geometry" />
        </mxCell>
        <mxCell id="0YH_L1Omuz1cofdH6k7x-147" value="" style="endArrow=none;html=1;rounded=0;exitX=0.5;exitY=0;exitDx=0;exitDy=0;entryX=0.25;entryY=1;entryDx=0;entryDy=0;" parent="1" source="0YH_L1Omuz1cofdH6k7x-145" target="0YH_L1Omuz1cofdH6k7x-140" edge="1">
          <mxGeometry relative="1" as="geometry">
            <mxPoint x="1052.5" y="540" as="sourcePoint" />
            <mxPoint x="1212.5" y="540" as="targetPoint" />
          </mxGeometry>
        </mxCell>
        <mxCell id="0YH_L1Omuz1cofdH6k7x-148" value="" style="endArrow=none;html=1;rounded=0;exitX=1;exitY=0;exitDx=0;exitDy=0;entryX=0;entryY=0.75;entryDx=0;entryDy=0;" parent="1" source="0YH_L1Omuz1cofdH6k7x-146" target="0YH_L1Omuz1cofdH6k7x-140" edge="1">
          <mxGeometry relative="1" as="geometry">
            <mxPoint x="1042.5" y="530" as="sourcePoint" />
            <mxPoint x="1202.5" y="530" as="targetPoint" />
          </mxGeometry>
        </mxCell>
        <mxCell id="0YH_L1Omuz1cofdH6k7x-149" value="PetID" style="ellipse;whiteSpace=wrap;html=1;" parent="1" vertex="1">
          <mxGeometry x="1152.5" y="380" width="75" height="40" as="geometry" />
        </mxCell>
        <mxCell id="0YH_L1Omuz1cofdH6k7x-150" value="" style="endArrow=none;html=1;rounded=0;exitX=0.75;exitY=0;exitDx=0;exitDy=0;entryX=0;entryY=1;entryDx=0;entryDy=0;" parent="1" source="0YH_L1Omuz1cofdH6k7x-140" target="0YH_L1Omuz1cofdH6k7x-149" edge="1">
          <mxGeometry relative="1" as="geometry">
            <mxPoint x="1052.5" y="570" as="sourcePoint" />
            <mxPoint x="1170" y="410" as="targetPoint" />
          </mxGeometry>
        </mxCell>
        <mxCell id="0YH_L1Omuz1cofdH6k7x-152" value="Service" style="rounded=1;whiteSpace=wrap;html=1;" parent="1" vertex="1">
          <mxGeometry x="1460" y="430" width="120" height="60" as="geometry" />
        </mxCell>
        <mxCell id="0YH_L1Omuz1cofdH6k7x-153" value="Type_Of_Service" style="ellipse;whiteSpace=wrap;html=1;" parent="1" vertex="1">
          <mxGeometry x="1530" y="350" width="130" height="40" as="geometry" />
        </mxCell>
        <mxCell id="0YH_L1Omuz1cofdH6k7x-154" value="" style="endArrow=none;html=1;rounded=0;exitX=0.75;exitY=0;exitDx=0;exitDy=0;entryX=0.5;entryY=1;entryDx=0;entryDy=0;" parent="1" source="0YH_L1Omuz1cofdH6k7x-152" target="0YH_L1Omuz1cofdH6k7x-153" edge="1">
          <mxGeometry relative="1" as="geometry">
            <mxPoint x="1470" y="360" as="sourcePoint" />
            <mxPoint x="1630" y="360" as="targetPoint" />
          </mxGeometry>
        </mxCell>
        <mxCell id="0YH_L1Omuz1cofdH6k7x-155" value="Price" style="ellipse;whiteSpace=wrap;html=1;" parent="1" vertex="1">
          <mxGeometry x="1550" y="550" width="75" height="40" as="geometry" />
        </mxCell>
        <mxCell id="0YH_L1Omuz1cofdH6k7x-156" value="" style="endArrow=none;html=1;rounded=0;exitX=0.382;exitY=0.001;exitDx=0;exitDy=0;exitPerimeter=0;entryX=0.75;entryY=1;entryDx=0;entryDy=0;" parent="1" source="0YH_L1Omuz1cofdH6k7x-155" target="0YH_L1Omuz1cofdH6k7x-152" edge="1">
          <mxGeometry relative="1" as="geometry">
            <mxPoint x="1220" y="470" as="sourcePoint" />
            <mxPoint x="1558" y="495" as="targetPoint" />
          </mxGeometry>
        </mxCell>
        <mxCell id="0YH_L1Omuz1cofdH6k7x-157" value="ServiceID" style="ellipse;whiteSpace=wrap;html=1;" parent="1" vertex="1">
          <mxGeometry x="1375" y="540" width="125" height="40" as="geometry" />
        </mxCell>
        <mxCell id="0YH_L1Omuz1cofdH6k7x-158" value="" style="endArrow=none;html=1;rounded=0;exitX=0.5;exitY=0;exitDx=0;exitDy=0;entryX=0.25;entryY=1;entryDx=0;entryDy=0;" parent="1" source="0YH_L1Omuz1cofdH6k7x-157" target="0YH_L1Omuz1cofdH6k7x-152" edge="1">
          <mxGeometry relative="1" as="geometry">
            <mxPoint x="1370" y="530" as="sourcePoint" />
            <mxPoint x="1530" y="530" as="targetPoint" />
          </mxGeometry>
        </mxCell>
        <mxCell id="0YH_L1Omuz1cofdH6k7x-159" value="StaffID" style="ellipse;whiteSpace=wrap;html=1;" parent="1" vertex="1">
          <mxGeometry x="1430" y="355" width="75" height="40" as="geometry" />
        </mxCell>
        <mxCell id="0YH_L1Omuz1cofdH6k7x-160" value="" style="endArrow=none;html=1;rounded=0;exitX=0.444;exitY=0.012;exitDx=0;exitDy=0;entryX=0.5;entryY=1;entryDx=0;entryDy=0;exitPerimeter=0;" parent="1" source="0YH_L1Omuz1cofdH6k7x-152" target="0YH_L1Omuz1cofdH6k7x-159" edge="1">
          <mxGeometry relative="1" as="geometry">
            <mxPoint x="1600" y="530" as="sourcePoint" />
            <mxPoint x="1760" y="530" as="targetPoint" />
          </mxGeometry>
        </mxCell>
        <mxCell id="0YH_L1Omuz1cofdH6k7x-161" value="Staff" style="rounded=1;whiteSpace=wrap;html=1;" parent="1" vertex="1">
          <mxGeometry x="1770" y="610" width="120" height="60" as="geometry" />
        </mxCell>
        <mxCell id="0YH_L1Omuz1cofdH6k7x-162" value="StaffID" style="ellipse;whiteSpace=wrap;html=1;" parent="1" vertex="1">
          <mxGeometry x="1792.5" y="720" width="75" height="40" as="geometry" />
        </mxCell>
        <mxCell id="0YH_L1Omuz1cofdH6k7x-163" value="Role" style="ellipse;whiteSpace=wrap;html=1;" parent="1" vertex="1">
          <mxGeometry x="1660" y="690" width="75" height="40" as="geometry" />
        </mxCell>
        <mxCell id="0YH_L1Omuz1cofdH6k7x-165" value="" style="endArrow=none;html=1;rounded=0;exitX=0.5;exitY=1;exitDx=0;exitDy=0;entryX=0.5;entryY=0;entryDx=0;entryDy=0;" parent="1" source="0YH_L1Omuz1cofdH6k7x-161" target="0YH_L1Omuz1cofdH6k7x-162" edge="1">
          <mxGeometry relative="1" as="geometry">
            <mxPoint x="1803.75" y="520" as="sourcePoint" />
            <mxPoint x="1963.75" y="520" as="targetPoint" />
          </mxGeometry>
        </mxCell>
        <mxCell id="0YH_L1Omuz1cofdH6k7x-166" value="" style="endArrow=none;html=1;rounded=0;exitX=1;exitY=0;exitDx=0;exitDy=0;entryX=0;entryY=0.5;entryDx=0;entryDy=0;" parent="1" source="0YH_L1Omuz1cofdH6k7x-163" target="0YH_L1Omuz1cofdH6k7x-161" edge="1">
          <mxGeometry relative="1" as="geometry">
            <mxPoint x="1673.75" y="750" as="sourcePoint" />
            <mxPoint x="1833.75" y="750" as="targetPoint" />
          </mxGeometry>
        </mxCell>
        <mxCell id="0YH_L1Omuz1cofdH6k7x-171" value="Have" style="rhombus;whiteSpace=wrap;html=1;" parent="1" vertex="1">
          <mxGeometry x="1250" y="420" width="80" height="80" as="geometry" />
        </mxCell>
        <mxCell id="0YH_L1Omuz1cofdH6k7x-172" value="" style="fontSize=12;html=1;endArrow=ERmany;rounded=0;exitX=1;exitY=0.5;exitDx=0;exitDy=0;entryX=0;entryY=0.5;entryDx=0;entryDy=0;" parent="1" source="0YH_L1Omuz1cofdH6k7x-171" target="0YH_L1Omuz1cofdH6k7x-152" edge="1">
          <mxGeometry width="100" height="100" relative="1" as="geometry">
            <mxPoint x="1572.5" y="690" as="sourcePoint" />
            <mxPoint x="1672.5" y="590" as="targetPoint" />
          </mxGeometry>
        </mxCell>
        <mxCell id="0YH_L1Omuz1cofdH6k7x-189" value="Date_And_Time" style="ellipse;whiteSpace=wrap;html=1;" parent="1" vertex="1">
          <mxGeometry x="1090" y="560" width="112.5" height="40" as="geometry" />
        </mxCell>
        <mxCell id="0YH_L1Omuz1cofdH6k7x-190" value="" style="endArrow=none;html=1;rounded=0;exitX=0.75;exitY=1;exitDx=0;exitDy=0;entryX=0.5;entryY=0;entryDx=0;entryDy=0;" parent="1" source="0YH_L1Omuz1cofdH6k7x-140" target="0YH_L1Omuz1cofdH6k7x-189" edge="1">
          <mxGeometry relative="1" as="geometry">
            <mxPoint x="997.5" y="590" as="sourcePoint" />
            <mxPoint x="1157.5" y="590" as="targetPoint" />
          </mxGeometry>
        </mxCell>
        <mxCell id="0YH_L1Omuz1cofdH6k7x-194" value="Can have" style="rhombus;whiteSpace=wrap;html=1;" parent="1" vertex="1">
          <mxGeometry x="440" y="420" width="80" height="80" as="geometry" />
        </mxCell>
        <mxCell id="0YH_L1Omuz1cofdH6k7x-195" value="" style="edgeStyle=entityRelationEdgeStyle;fontSize=12;html=1;endArrow=ERmandOne;startArrow=ERmandOne;rounded=0;exitX=1;exitY=0.5;exitDx=0;exitDy=0;entryX=0;entryY=0.5;entryDx=0;entryDy=0;" parent="1" source="0YH_L1Omuz1cofdH6k7x-194" target="0YH_L1Omuz1cofdH6k7x-131" edge="1">
          <mxGeometry width="100" height="100" relative="1" as="geometry">
            <mxPoint x="580" y="510.0000000000001" as="sourcePoint" />
            <mxPoint x="670" y="510.0000000000001" as="targetPoint" />
          </mxGeometry>
        </mxCell>
        <mxCell id="0YH_L1Omuz1cofdH6k7x-197" value="Can have" style="rhombus;whiteSpace=wrap;html=1;" parent="1" vertex="1">
          <mxGeometry x="810" y="420" width="80" height="80" as="geometry" />
        </mxCell>
        <mxCell id="0YH_L1Omuz1cofdH6k7x-198" value="" style="edgeStyle=entityRelationEdgeStyle;fontSize=12;html=1;endArrow=ERoneToMany;rounded=0;exitX=1;exitY=0.5;exitDx=0;exitDy=0;entryX=0;entryY=0.5;entryDx=0;entryDy=0;" parent="1" source="0YH_L1Omuz1cofdH6k7x-131" target="0YH_L1Omuz1cofdH6k7x-197" edge="1">
          <mxGeometry width="100" height="100" relative="1" as="geometry">
            <mxPoint x="950" y="760" as="sourcePoint" />
            <mxPoint x="1050" y="660" as="targetPoint" />
          </mxGeometry>
        </mxCell>
        <mxCell id="0YH_L1Omuz1cofdH6k7x-199" value="" style="edgeStyle=entityRelationEdgeStyle;fontSize=12;html=1;endArrow=ERoneToMany;rounded=0;exitX=1;exitY=0.5;exitDx=0;exitDy=0;entryX=0;entryY=0.5;entryDx=0;entryDy=0;" parent="1" source="0YH_L1Omuz1cofdH6k7x-197" target="0YH_L1Omuz1cofdH6k7x-140" edge="1">
          <mxGeometry width="100" height="100" relative="1" as="geometry">
            <mxPoint x="800" y="710" as="sourcePoint" />
            <mxPoint x="900" y="610" as="targetPoint" />
          </mxGeometry>
        </mxCell>
        <mxCell id="0YH_L1Omuz1cofdH6k7x-200" value="" style="fontSize=12;html=1;endArrow=ERoneToMany;rounded=0;exitX=1;exitY=0.5;exitDx=0;exitDy=0;entryX=0;entryY=0.5;entryDx=0;entryDy=0;" parent="1" source="0YH_L1Omuz1cofdH6k7x-140" target="0YH_L1Omuz1cofdH6k7x-171" edge="1">
          <mxGeometry width="100" height="100" relative="1" as="geometry">
            <mxPoint x="1250" y="429.9999999999999" as="sourcePoint" />
            <mxPoint x="1260" y="460" as="targetPoint" />
          </mxGeometry>
        </mxCell>
        <mxCell id="0YH_L1Omuz1cofdH6k7x-202" value="Specialize" style="rounded=1;whiteSpace=wrap;html=1;" parent="1" vertex="1">
          <mxGeometry x="1770" y="280" width="120" height="60" as="geometry" />
        </mxCell>
        <mxCell id="0YH_L1Omuz1cofdH6k7x-205" value="Specialize_In" style="ellipse;whiteSpace=wrap;html=1;" parent="1" vertex="1">
          <mxGeometry x="1710" y="190" width="95" height="40" as="geometry" />
        </mxCell>
        <mxCell id="0YH_L1Omuz1cofdH6k7x-206" value="SpecializeID" style="ellipse;whiteSpace=wrap;html=1;" parent="1" vertex="1">
          <mxGeometry x="1850" y="190" width="130" height="40" as="geometry" />
        </mxCell>
        <mxCell id="0YH_L1Omuz1cofdH6k7x-207" value="" style="endArrow=none;html=1;rounded=0;entryX=0.5;entryY=1;entryDx=0;entryDy=0;exitX=0.25;exitY=0;exitDx=0;exitDy=0;" parent="1" source="0YH_L1Omuz1cofdH6k7x-202" target="0YH_L1Omuz1cofdH6k7x-205" edge="1">
          <mxGeometry relative="1" as="geometry">
            <mxPoint x="1600" y="550" as="sourcePoint" />
            <mxPoint x="1977.5" y="290" as="targetPoint" />
          </mxGeometry>
        </mxCell>
        <mxCell id="0YH_L1Omuz1cofdH6k7x-208" value="" style="endArrow=none;html=1;rounded=0;exitX=0.75;exitY=0;exitDx=0;exitDy=0;entryX=0.5;entryY=1;entryDx=0;entryDy=0;" parent="1" source="0YH_L1Omuz1cofdH6k7x-202" target="0YH_L1Omuz1cofdH6k7x-206" edge="1">
          <mxGeometry relative="1" as="geometry">
            <mxPoint x="1940" y="490" as="sourcePoint" />
            <mxPoint x="2100" y="490" as="targetPoint" />
          </mxGeometry>
        </mxCell>
        <mxCell id="0YH_L1Omuz1cofdH6k7x-209" style="edgeStyle=orthogonalEdgeStyle;rounded=0;orthogonalLoop=1;jettySize=auto;html=1;exitX=0.5;exitY=1;exitDx=0;exitDy=0;" parent="1" edge="1">
          <mxGeometry relative="1" as="geometry">
            <mxPoint x="1977.5" y="290" as="sourcePoint" />
            <mxPoint x="1977.5" y="290" as="targetPoint" />
          </mxGeometry>
        </mxCell>
        <mxCell id="0YH_L1Omuz1cofdH6k7x-213" value="Can be" style="rhombus;whiteSpace=wrap;html=1;" parent="1" vertex="1">
          <mxGeometry x="1790" y="420" width="80" height="80" as="geometry" />
        </mxCell>
        <mxCell id="0YH_L1Omuz1cofdH6k7x-215" value="" style="edgeStyle=elbowEdgeStyle;fontSize=12;html=1;endArrow=ERmany;startArrow=ERmany;rounded=0;exitX=1;exitY=0.5;exitDx=0;exitDy=0;entryX=0;entryY=0.5;entryDx=0;entryDy=0;" parent="1" source="0YH_L1Omuz1cofdH6k7x-152" target="0YH_L1Omuz1cofdH6k7x-213" edge="1">
          <mxGeometry width="100" height="100" relative="1" as="geometry">
            <mxPoint x="1535" y="790" as="sourcePoint" />
            <mxPoint x="1635" y="690" as="targetPoint" />
          </mxGeometry>
        </mxCell>
        <mxCell id="0YH_L1Omuz1cofdH6k7x-216" value="" style="fontSize=12;html=1;endArrow=ERmany;startArrow=ERmany;rounded=0;exitX=0.5;exitY=0;exitDx=0;exitDy=0;entryX=0.5;entryY=1;entryDx=0;entryDy=0;" parent="1" source="0YH_L1Omuz1cofdH6k7x-213" target="0YH_L1Omuz1cofdH6k7x-202" edge="1">
          <mxGeometry width="100" height="100" relative="1" as="geometry">
            <mxPoint x="1890" y="490" as="sourcePoint" />
            <mxPoint x="1975" y="460" as="targetPoint" />
          </mxGeometry>
        </mxCell>
        <mxCell id="0YH_L1Omuz1cofdH6k7x-220" value="" style="edgeStyle=orthogonalEdgeStyle;fontSize=12;html=1;endArrow=ERmany;startArrow=ERmany;rounded=0;entryX=0.5;entryY=1;entryDx=0;entryDy=0;exitX=0.5;exitY=0;exitDx=0;exitDy=0;" parent="1" source="0YH_L1Omuz1cofdH6k7x-161" target="0YH_L1Omuz1cofdH6k7x-213" edge="1">
          <mxGeometry width="100" height="100" relative="1" as="geometry">
            <mxPoint x="1730" y="680" as="sourcePoint" />
            <mxPoint x="1830" y="580" as="targetPoint" />
          </mxGeometry>
        </mxCell>
        <mxCell id="0YH_L1Omuz1cofdH6k7x-221" value="&lt;span style=&quot;border-bottom: 1px dotted&quot;&gt;PetID&lt;/span&gt;" style="ellipse;whiteSpace=wrap;html=1;align=center;" parent="1" vertex="1">
          <mxGeometry x="450" y="350" width="60" height="40" as="geometry" />
        </mxCell>
        <mxCell id="0YH_L1Omuz1cofdH6k7x-222" value="&lt;span style=&quot;border-bottom: 1px dotted&quot;&gt;OwnerID&lt;/span&gt;" style="ellipse;whiteSpace=wrap;html=1;align=center;" parent="1" vertex="1">
          <mxGeometry x="440" y="540" width="80" height="40" as="geometry" />
        </mxCell>
        <mxCell id="0YH_L1Omuz1cofdH6k7x-223" value="" style="endArrow=none;html=1;rounded=0;exitX=0.5;exitY=0;exitDx=0;exitDy=0;entryX=0.5;entryY=1;entryDx=0;entryDy=0;" parent="1" source="0YH_L1Omuz1cofdH6k7x-194" target="0YH_L1Omuz1cofdH6k7x-221" edge="1">
          <mxGeometry relative="1" as="geometry">
            <mxPoint x="240" y="600" as="sourcePoint" />
            <mxPoint x="410" y="580" as="targetPoint" />
          </mxGeometry>
        </mxCell>
        <mxCell id="0YH_L1Omuz1cofdH6k7x-224" value="" style="endArrow=none;html=1;rounded=0;exitX=0.5;exitY=1;exitDx=0;exitDy=0;entryX=0.5;entryY=0;entryDx=0;entryDy=0;" parent="1" source="0YH_L1Omuz1cofdH6k7x-194" target="0YH_L1Omuz1cofdH6k7x-222" edge="1">
          <mxGeometry relative="1" as="geometry">
            <mxPoint x="560" y="670" as="sourcePoint" />
            <mxPoint x="720" y="670" as="targetPoint" />
          </mxGeometry>
        </mxCell>
        <mxCell id="0YH_L1Omuz1cofdH6k7x-225" value="StaffID" style="ellipse;whiteSpace=wrap;html=1;align=center;" parent="1" vertex="1">
          <mxGeometry x="1670" y="510" width="120" height="40" as="geometry" />
        </mxCell>
        <mxCell id="0YH_L1Omuz1cofdH6k7x-226" value="Type_Of_Service" style="ellipse;whiteSpace=wrap;html=1;align=center;" parent="1" vertex="1">
          <mxGeometry x="1860" y="390" width="120" height="40" as="geometry" />
        </mxCell>
        <mxCell id="0YH_L1Omuz1cofdH6k7x-227" value="SpecializeID" style="ellipse;whiteSpace=wrap;html=1;align=center;" parent="1" vertex="1">
          <mxGeometry x="1890" y="520" width="100" height="40" as="geometry" />
        </mxCell>
        <mxCell id="0YH_L1Omuz1cofdH6k7x-228" value="" style="endArrow=none;html=1;rounded=0;exitX=1;exitY=0;exitDx=0;exitDy=0;entryX=0;entryY=1;entryDx=0;entryDy=0;" parent="1" source="0YH_L1Omuz1cofdH6k7x-225" target="0YH_L1Omuz1cofdH6k7x-213" edge="1">
          <mxGeometry relative="1" as="geometry">
            <mxPoint x="1757.5" y="540" as="sourcePoint" />
            <mxPoint x="1860" y="610" as="targetPoint" />
          </mxGeometry>
        </mxCell>
        <mxCell id="0YH_L1Omuz1cofdH6k7x-229" value="" style="endArrow=none;html=1;rounded=0;exitX=0;exitY=0;exitDx=0;exitDy=0;entryX=1;entryY=1;entryDx=0;entryDy=0;" parent="1" source="0YH_L1Omuz1cofdH6k7x-227" target="0YH_L1Omuz1cofdH6k7x-213" edge="1">
          <mxGeometry relative="1" as="geometry">
            <mxPoint x="1700" y="620" as="sourcePoint" />
            <mxPoint x="1860" y="620" as="targetPoint" />
          </mxGeometry>
        </mxCell>
        <mxCell id="0YH_L1Omuz1cofdH6k7x-230" value="" style="endArrow=none;html=1;rounded=0;exitX=0.5;exitY=1;exitDx=0;exitDy=0;entryX=1;entryY=0.5;entryDx=0;entryDy=0;" parent="1" source="0YH_L1Omuz1cofdH6k7x-226" target="0YH_L1Omuz1cofdH6k7x-213" edge="1">
          <mxGeometry relative="1" as="geometry">
            <mxPoint x="1670" y="580" as="sourcePoint" />
            <mxPoint x="2040" y="580" as="targetPoint" />
          </mxGeometry>
        </mxCell>
        <mxCell id="FByrpy41GTo0yOvxXhL--1" value="Name" style="ellipse;whiteSpace=wrap;html=1;" parent="1" vertex="1">
          <mxGeometry x="160" y="440" width="75" height="40" as="geometry" />
        </mxCell>
        <mxCell id="FByrpy41GTo0yOvxXhL--2" value="Contact_Info" style="ellipse;whiteSpace=wrap;html=1;" parent="1" vertex="1">
          <mxGeometry x="235" y="520" width="75" height="40" as="geometry" />
        </mxCell>
        <mxCell id="FByrpy41GTo0yOvxXhL--3" value="" style="endArrow=none;html=1;rounded=0;exitX=1;exitY=0.5;exitDx=0;exitDy=0;entryX=0;entryY=0.5;entryDx=0;entryDy=0;" parent="1" source="FByrpy41GTo0yOvxXhL--1" target="0YH_L1Omuz1cofdH6k7x-123" edge="1">
          <mxGeometry relative="1" as="geometry">
            <mxPoint x="180" y="640" as="sourcePoint" />
            <mxPoint x="340" y="640" as="targetPoint" />
          </mxGeometry>
        </mxCell>
        <mxCell id="FByrpy41GTo0yOvxXhL--4" value="" style="endArrow=none;html=1;rounded=0;exitX=0.5;exitY=0;exitDx=0;exitDy=0;entryX=0.25;entryY=1;entryDx=0;entryDy=0;" parent="1" source="FByrpy41GTo0yOvxXhL--2" target="0YH_L1Omuz1cofdH6k7x-123" edge="1">
          <mxGeometry relative="1" as="geometry">
            <mxPoint x="240" y="620" as="sourcePoint" />
            <mxPoint x="400" y="620" as="targetPoint" />
          </mxGeometry>
        </mxCell>
        <mxCell id="jWB8rzD-ewSJsVIUuiAU-15" value="Name" style="ellipse;whiteSpace=wrap;html=1;" vertex="1" parent="1">
          <mxGeometry x="565" y="530" width="75" height="40" as="geometry" />
        </mxCell>
        <mxCell id="jWB8rzD-ewSJsVIUuiAU-16" value="" style="endArrow=none;html=1;rounded=0;exitX=0.25;exitY=1;exitDx=0;exitDy=0;entryX=0.5;entryY=0;entryDx=0;entryDy=0;" edge="1" parent="1" source="0YH_L1Omuz1cofdH6k7x-131" target="jWB8rzD-ewSJsVIUuiAU-15">
          <mxGeometry relative="1" as="geometry">
            <mxPoint x="835" y="650" as="sourcePoint" />
            <mxPoint x="995" y="650" as="targetPoint" />
          </mxGeometry>
        </mxCell>
        <mxCell id="jWB8rzD-ewSJsVIUuiAU-17" value="Name" style="ellipse;whiteSpace=wrap;html=1;" vertex="1" parent="1">
          <mxGeometry x="1925" y="680" width="75" height="40" as="geometry" />
        </mxCell>
        <mxCell id="jWB8rzD-ewSJsVIUuiAU-18" value="" style="endArrow=none;html=1;rounded=0;exitX=1;exitY=0.5;exitDx=0;exitDy=0;entryX=0;entryY=0;entryDx=0;entryDy=0;" edge="1" parent="1" source="0YH_L1Omuz1cofdH6k7x-161" target="jWB8rzD-ewSJsVIUuiAU-17">
          <mxGeometry relative="1" as="geometry">
            <mxPoint x="2050" y="730" as="sourcePoint" />
            <mxPoint x="2210" y="730" as="targetPoint" />
          </mxGeometry>
        </mxCell>
        <mxCell id="jWB8rzD-ewSJsVIUuiAU-21" value="" style="edgeStyle=entityRelationEdgeStyle;fontSize=12;html=1;endArrow=ERoneToMany;rounded=0;exitX=0;exitY=0.5;exitDx=0;exitDy=0;entryX=1;entryY=0.5;entryDx=0;entryDy=0;" edge="1" parent="1" source="0YH_L1Omuz1cofdH6k7x-194" target="0YH_L1Omuz1cofdH6k7x-123">
          <mxGeometry width="100" height="100" relative="1" as="geometry">
            <mxPoint x="360" y="780" as="sourcePoint" />
            <mxPoint x="460" y="680" as="targetPoint" />
          </mxGeometry>
        </mxCell>
        <mxCell id="jWB8rzD-ewSJsVIUuiAU-22" value="" style="fontSize=12;html=1;endArrow=ERoneToMany;rounded=0;exitX=0;exitY=0.5;exitDx=0;exitDy=0;entryX=1;entryY=0.5;entryDx=0;entryDy=0;edgeStyle=elbowEdgeStyle;" edge="1" parent="1" source="0YH_L1Omuz1cofdH6k7x-95" target="0YH_L1Omuz1cofdH6k7x-51">
          <mxGeometry width="100" height="100" relative="1" as="geometry">
            <mxPoint x="460" y="1310" as="sourcePoint" />
            <mxPoint x="560" y="1210" as="targetPoint" />
          </mxGeometry>
        </mxCell>
        <mxCell id="jWB8rzD-ewSJsVIUuiAU-23" value="" style="edgeStyle=elbowEdgeStyle;fontSize=12;html=1;endArrow=ERmandOne;startArrow=ERmandOne;rounded=0;exitX=1;exitY=0.5;exitDx=0;exitDy=0;entryX=0;entryY=0.5;entryDx=0;entryDy=0;" edge="1" parent="1" source="0YH_L1Omuz1cofdH6k7x-96" target="0YH_L1Omuz1cofdH6k7x-55">
          <mxGeometry width="100" height="100" relative="1" as="geometry">
            <mxPoint x="470" y="1280" as="sourcePoint" />
            <mxPoint x="570" y="1180" as="targetPoint" />
          </mxGeometry>
        </mxCell>
        <mxCell id="jWB8rzD-ewSJsVIUuiAU-24" style="edgeStyle=orthogonalEdgeStyle;rounded=0;orthogonalLoop=1;jettySize=auto;html=1;exitX=0.5;exitY=1;exitDx=0;exitDy=0;" edge="1" parent="1" source="0YH_L1Omuz1cofdH6k7x-134" target="0YH_L1Omuz1cofdH6k7x-134">
          <mxGeometry relative="1" as="geometry" />
        </mxCell>
        <mxCell id="jWB8rzD-ewSJsVIUuiAU-29" value="" style="edgeStyle=elbowEdgeStyle;fontSize=12;html=1;endArrow=ERmany;startArrow=ERmany;rounded=0;entryX=0;entryY=0.5;entryDx=0;entryDy=0;exitX=1;exitY=0.5;exitDx=0;exitDy=0;" edge="1" parent="1" source="0YH_L1Omuz1cofdH6k7x-81" target="0YH_L1Omuz1cofdH6k7x-115">
          <mxGeometry width="100" height="100" relative="1" as="geometry">
            <mxPoint x="1070" y="1470" as="sourcePoint" />
            <mxPoint x="1170" y="1370" as="targetPoint" />
          </mxGeometry>
        </mxCell>
        <mxCell id="jWB8rzD-ewSJsVIUuiAU-30" value="" style="edgeStyle=elbowEdgeStyle;fontSize=12;html=1;endArrow=ERoneToMany;rounded=0;exitX=1;exitY=0.5;exitDx=0;exitDy=0;entryX=0;entryY=0.5;entryDx=0;entryDy=0;" edge="1" parent="1" source="0YH_L1Omuz1cofdH6k7x-78" target="0YH_L1Omuz1cofdH6k7x-109">
          <mxGeometry width="100" height="100" relative="1" as="geometry">
            <mxPoint x="880" y="1590" as="sourcePoint" />
            <mxPoint x="980" y="1490" as="targetPoint" />
            <Array as="points">
              <mxPoint x="1060" y="1030" />
            </Array>
          </mxGeometry>
        </mxCell>
      </root>
    </mxGraphModel>
  </diagram>
</mxfile>
